# AST/ASF file generated using VICON BodyLanguage
# -----------------------------------------------
:version 1.10
:name VICON
:units
  mass 1.0
  length 0.45
  angle deg
:documentation
   .ast/.asf automatically generated from VICON data using
   VICON BodyBuilder and BodyLanguage model FoxedUp or BRILLIANT.MOD
:root
   order TX TY TZ RX RY RZ
   axis XYZ
   position 0 0 0  
   orientation 0 0 0 
:bonedata
  begin
     id 1 
     name lhipjoint
     direction 0.645893 -0.654526 0.392961 
     length 2.38111 
     axis 0 0 0  XYZ
  end
  begin
     id 2 
     name lfemur
     direction 0.34202 -0.939693 0  
     length 6.6822  
     axis 0 0 20  XYZ
    dof rx ry rz
    limits (-160.0 20.0)
           (-70.0 70.0)
           (-60.0 70.0)
  end
  begin
     id 3 
     name ltibia
     direction 0.34202 -0.939693 0   
     length 6.93904   
     axis 0 0 20   XYZ
    dof rx
    limits (-10.0 170.0)
  end
  begin
     id 4 
     name lfoot
     direction 0.0694967 -0.190941 0.979138   
     length 2.13616   
     axis -90 7.62852e-016 20   XYZ
    dof rx rz
    limits (-45.0 90.0)
           (-70.0 20.0)
  end
  begin
     id 5 
     name ltoes
     direction 1.535e-011 -4.2202e-011 1   
     length 1.07536   
     axis -90 7.62852e-016 20   XYZ
    dof rx
    limits (-90.0 20.0)
  end
  begin
     id 6 
     name rhipjoint
     direction -0.700219 -0.612087 0.367481   
     length 2.54621  
     axis 0 0 0  XYZ 
  end
  begin
     id 7 
     name rfemur
     direction -0.34202 -0.939693 0   
     length 6.55353   
     axis 0 0 -20   XYZ
    dof rx ry rz
    limits (-160.0 20.0)
           (-70.0 70.0)
           (-70.0 60.0)
  end
  begin
     id 8 
     name rtibia
     direction -0.34202 -0.939693 0   
     length 6.8736   
     axis 0 0 -20   XYZ
    dof rx
    limits (-10.0 170.0)
 end
 begin
     id 9 
     name rfoot
     direction -0.0679995 -0.186827 0.980037   
     length 2.1218  
     axis -90 -7.62852e-016 -20   XYZ
    dof rx rz
    limits (-45.0 90.0)
           (-20.0 70.0)
  end
  begin
     id 10 
     name rtoes
     direction -1.53589e-011 -4.21772e-011 1   
     length 1.06864   
     axis -90 -7.62852e-016 -20   XYZ
    dof rx
    limits (-90.0 20.0)
  end
  begin
     id 11 
     name lowerback
     direction -0.0416607 0.996347 -0.0745409   
     length 2.12205   
     axis 0 0 0   XYZ
    dof rx ry rz
    limits (-20.0 45.0)
           (-30.0 30.0)
           (-30.0 30.0)
  end
  begin
     id 12 
     name upperback
     direction -0.000153993 0.999276 -0.0380568   
     length 2.12759   
     axis 0 0 0   XYZ
    dof rx ry rz
    limits (-20.0 45.0)
           (-30.0 30.0)
           (-30.0 30.0)
  end
  begin
     id 13 
     name thorax
     direction 0.0187671 0.999821 -0.00241421   
     length 2.13704   
     axis 0 0 0   XYZ
    dof rx ry rz
    limits (-20.0 45.0)
           (-30.0 30.0)
           (-30.0 30.0)
  end
  begin
     id 14 
     name lowerneck
     direction 0.0268157 0.964865 0.261374   
     length 1.65253   
     axis 0 0 0   XYZ
    dof rx ry rz
    limits (-20.0 45.0)
           (-30.0 30.0)
           (-30.0 30.0)
  end
  begin
     id 15 
     name upperneck
     direction 0.00263774 0.939908 -0.341418   
     length 1.72375   
     axis 0 0 0   XYZ
    dof rx ry rz
    limits (-20.0 45.0)
           (-30.0 30.0)
           (-30.0 30.0)
  end
  begin
     id 16
     name head
     direction -0.00526001 0.989001 -0.147818  
     length 1.74878  
     axis 0 0 0   XYZ
    dof rx ry rz
    limits (-20.0 45.0)
           (-30.0 30.0)
           (-30.0 30.0)
  end
  begin
     id 17 
     name lclavicle
     direction 0.881214 0.461162 -0.103884  
     length 3.25108  
     axis 0 0 0   XYZ
    dof ry rz
    limits (-20.0 10.0)
           (0.0 20.0)
  end
  begin
     id 18 
     name lhumerus
     direction 1 -4.4899e-011 3.38092e-027   
     length 4.87408   
     axis 180 -30 -90   XYZ
    dof rx ry rz
    limits (-60.0 90.0)
           (-90.0 90.0)
           (-90.0 90.0)
  end
  begin
     id 19
     name lradius
     direction 1 -4.48931e-011 9.96288e-027   
     length 2.76729   
     axis 180 -30 -90   XYZ
    dof rx
    limits (-10.0 170.0)
  end
  begin
     id 20
     name lwrist
     direction 1 -4.4896e-011 1.50617e-026   
     length 1.38364   
     axis -9.31234e-015 90 90   XYZ
    dof ry
    limits (-180.0 0.0)
 end
  begin
     id 21 
     name lhand
     direction 1 -4.49038e-011 3.01286e-026   
     length 0.98922   
     axis -1.92217e-014 90 90   XYZ
    dof rx rz
    limits (-90.0 90.0)
           (-45.0 45.0)
  end
  begin
     id 22 
     name lfingers
     direction 1 -4.49051e-011 6.02588e-026   
     length 0.797535   
     axis -3.84436e-014 90 90   XYZ
    dof rx
    limits (0.0 90.0)
  end
  begin
     id 23
     name lthumb
     direction 0.707107 -6.34901e-011 0.707107   
     length 1.14511   
     axis -90 45 2.19363e-014   XYZ
    dof rx rz
    limits (-45.0 45.0)
           (-45.0 45.0)
  end
  begin
     id 24 
     name rclavicle
     direction -0.893894 0.441652 -0.0767889   
     length 3.29361  
     axis 0 0 0   XYZ 
    dof ry rz
    limits (-10.0 20.0)
           (-20.0 0.0)
  end
  begin
     id 25 
     name rhumerus
     direction -1 -4.48945e-011 8.0491e-028  
     length 4.71404   
     axis 180 30 90   XYZ
    dof rx ry rz
    limits (-90.0 60.0)
           (-90.0 90.0)
           (-90.0 90.0)
  end
  begin
     id 26 
     name rradius
     direction -1 -4.48986e-011 9.27795e-027   
     length 2.83468   
     axis 180 30 90   XYZ
    dof rx
    limits (-10.0 170.0)
  end
  begin
     id 27 
     name rwrist
     direction -1 -4.49029e-011 1.5064e-026   
     length 1.41734   
     axis -9.31234e-015 -90 -90   XYZ
    dof ry
    limits (-180.0 0.0)
  end
  begin
     id 28
     name rhand
     direction -1 -4.48857e-011 3.01165e-026   
     length 0.868195   
     axis -1.92217e-014 -90 -90   XYZ
    dof rx rz
    limits (-90.0 90.0)
           (-45.0 45.0)
  end
  begin
     id 29
     name rfingers
     direction -1 -4.49048e-011 6.02585e-026   
     length 0.699961   
     axis -3.84436e-014 -90 -90   XYZ
    dof rx
    limits (0.0 90.0)
  end
  begin
     id 30
     name rthumb
     direction -0.707107 -6.34854e-011 0.707107   
     length 1.00501   
     axis -90 -45 -2.19363e-014   XYZ
    dof rx rz
    limits (-45.0 45.0)
           (-45.0 45.0)
  end
:hierarchy
  begin
    root lhipjoint rhipjoint lowerback
    lhipjoint lfemur
    lfemur ltibia
    ltibia lfoot
    lfoot ltoes
    rhipjoint rfemur
    rfemur rtibia
    rtibia rfoot
    rfoot rtoes
    lowerback upperback
    upperback thorax
    thorax lowerneck lclavicle rclavicle
    lowerneck upperneck
    upperneck head
    lclavicle lhumerus
    lhumerus lradius
    lradius lwrist
    lwrist lhand lthumb
    lhand lfingers
    rclavicle rhumerus
    rhumerus rradius
    rradius rwrist
    rwrist rhand rthumb
    rhand rfingers
  end

#!OML:ASF H:\ManfredObstacles\Project 1\Capture day 2\Session 1\male.ASF
:FULLY-SPECIFIED
:DEGREES
148
root 3.54848 16.2952 -6.55835 -170.318 -38.6605 168.895
lowerback 2.97311 -3.51353 -12.9353
upperback 3.0759 -5.2266 -3.88224
thorax 2.33183 -2.99073 3.13282
lowerneck -27.6779 -2.89191 -6.68974
upperneck 46.3463 -11.452 6.67369
head 29.9771 -5.87491 1.16812
rclavicle -2.76311e-014 -6.83819e-014
rhumerus -80.2017 -1.86934 -48.4002
rradius 69.7594
rwrist 4.80869
rhand -4.93005 -3.79563
rfingers 7.12502
rthumb 20.8606 -32.6941
lclavicle -2.76311e-014 -6.83819e-014
lhumerus -33.3238 -34.9324 32.2691
lradius 89.6931
lwrist -19.9222
lhand -17.2751 4.49247
lfingers 7.12502
lthumb 8.96991 34.2818
rfemur -26.9418 10.5341 0.276791
rtibia 36.3358
rfoot 13.817 -16.5427
rtoes -21.3557
lfemur -35.4494 -30.3574 24.5403
ltibia 141.495
lfoot -2.05464 12.6484
ltoes 8.15783
149
root 3.56783 16.0782 -6.74986 -171.516 -38.3143 169.777
lowerback 4.21025 -3.09668 -11.68
upperback 3.30968 -4.81647 -3.76384
thorax 1.71741 -2.74143 2.67575
lowerneck -27.9295 -3.12327 -6.74924
upperneck 46.0442 -11.3546 6.54309
head 29.5521 -5.78258 1.14564
rclavicle -5.54609e-014 -1.90833e-014
rhumerus -77.1457 -2.43684 -51.1693
rradius 68.8994
rwrist 5.83766
rhand -5.10429 -3.95725
rfingers 7.12502
rthumb 20.6932 -32.874
lclavicle -5.54609e-014 -1.90833e-014
lhumerus -35.008 -34.0101 35.5455
lradius 89.3888
lwrist -20.4573
lhand -17.3878 4.75886
lfingers 7.12502
lthumb 8.86112 34.5528
rfemur -27.6441 10.2594 1.79041
rtibia 40.0464
rfoot 10.3737 -14.1188
rtoes -24.6172
lfemur -36.9787 -30.5724 24.4773
ltibia 142.074
lfoot -2.25793 13.6447
ltoes 8.28229
150
root 3.57962 15.8899 -6.92674 -172.895 -37.7021 170.847
lowerback 5.51801 -2.69287 -10.278
upperback 3.56007 -4.3942 -3.60401
thorax 1.0888 -2.48841 2.16249
lowerneck -28.2219 -3.27377 -6.71034
upperneck 45.7542 -11.1411 6.33731
head 29.121 -5.64399 1.09188
rclavicle -1.17283e-013 -1.90833e-014
rhumerus -73.3709 -2.52973 -54.3191
rradius 67.8025
rwrist 7.66119
rhand -9.15048 -6.62337
rfingers 7.12502
rthumb 16.8016 -35.9164
lclavicle -1.17283e-013 -1.90833e-014
lhumerus -36.859 -33.013 38.9931
lradius 89.0352
lwrist -20.7378
lhand -17.5458 5.10286
lfingers 7.12502
lthumb 8.70866 34.9032
rfemur -28.1546 10.1565 3.4329
rtibia 43.1762
rfoot 7.20235 -13.3974
rtoes -25.6322
lfemur -38.2568 -29.7523 24.1768
ltibia 142.401
lfoot -2.57137 14.7172
ltoes 8.48631
151
root 3.58348 15.7337 -7.09385 -174.199 -36.8818 171.945
lowerback 6.69574 -2.33965 -8.86192
upperback 3.80388 -3.98675 -3.43039
thorax 0.548118 -2.25129 1.62344
lowerneck -28.5346 -3.34253 -6.58506
upperneck 45.4727 -10.8265 6.08271
head 28.6866 -5.46659 1.02258
rclavicle 6.10269e-014 7.15625e-015
rhumerus -68.9891 -1.95701 -57.8724
rradius 66.6343
rwrist 10.56
rhand -18.8156 -14.8832
rfingers 7.12502
rthumb 7.48318 -44.7309
lclavicle 6.10269e-014 7.15625e-015
lhumerus -38.7612 -31.9957 42.4776
lradius 88.5959
lwrist -20.7618
lhand -17.7253 5.4722
lfingers 7.12502
lthumb 8.53542 35.2797
rfemur -28.534 10.0858 5.08522
rtibia 45.6908
rfoot 4.59698 -13.3196
rtoes -26.0945
lfemur -39.4522 -27.8186 23.6011
ltibia 142.433
lfoot -2.97756 15.8471
ltoes 8.74545
152
root 3.5805 15.6041 -7.25452 -175.2 -35.9392 172.879
lowerback 7.60474 -2.05373 -7.59377
upperback 4.01393 -3.62014 -3.27418
thorax 0.153472 -2.04498 1.11518
lowerneck -28.7968 -3.33865 -6.46878
upperneck 45.2249 -10.4578 5.85712
head 28.2991 -5.28653 0.990578
rclavicle -5.46658e-014 1.59028e-015
rhumerus -64.0812 -0.459183 -61.8083
rradius 65.5864
rwrist 15.3237
rhand -28.9646 -29.284
rfingers 7.12502
rthumb -2.31753 -59.2512
lclavicle -5.46658e-014 1.59028e-015
lhumerus -40.6045 -31.025 45.922
lradius 88.048
lwrist -20.4772
lhand -17.9118 5.75813
lfingers 7.12502
lthumb 8.3555 35.5729
rfemur -28.8068 10.0586 6.52655
rtibia 47.6456
rfoot 2.36245 -13.5696
rtoes -26.2604
lfemur -40.6865 -24.9714 22.6431
ltibia 142.133
lfoot -3.51384 16.96
ltoes 9.0357
153
root 3.5724 15.4992 -7.41134 -175.773 -34.9622 173.543
lowerback 8.17694 -1.82686 -6.55266
upperback 4.17548 -3.29784 -3.16341
thorax -0.0756819 -1.86939 0.65898
lowerneck -29.0562 -3.27347 -6.30677
upperneck 45.0345 -10.0703 5.62392
head 28.0005 -5.10434 0.948026
rclavicle 2.0276e-014 -2.22639e-014
rhumerus -58.9342 1.75749 -65.5176
rradius 64.5506
rwrist 22.1451
rhand -33.9257 -47.9265
rfingers 7.12502
rthumb -7.10783 -77.7871
lclavicle 2.0276e-014 -2.22639e-014
lhumerus -42.2309 -30.1862 49.2436
lradius 87.3738
lwrist -19.9526
lhand -18.0667 5.88303
lfingers 7.12502
lthumb 8.20594 35.7037
rfemur -29.0924 10.0723 7.64419
rtibia 49.1516
rfoot 0.428279 -13.9406
rtoes -26.3331
lfemur -41.9364 -21.8523 20.9623
ltibia 141.427
lfoot -4.04071 18.0612
ltoes 9.20743
